<svg xmlns="http://www.w3.org/2000/svg" viewBox="0 0 64 64" fill="none">
  <defs>
    <linearGradient id="bg" x1="6" y1="6" x2="58" y2="58" gradientUnits="userSpaceOnUse">
      <stop stop-color="#eaf7ff" />
      <stop offset="1" stop-color="#dcecff" />
    </linearGradient>
    <linearGradient id="bookFace" x1="18" y1="14" x2="50" y2="50" gradientUnits="userSpaceOnUse">
      <stop stop-color="#ffffff" />
      <stop offset="1" stop-color="#f5faff" />
    </linearGradient>
  </defs>

  <rect x="4" y="4" width="56" height="56" rx="16" fill="url(#bg)" />

  <rect x="16" y="14" width="32" height="36" rx="8.5" fill="url(#bookFace)" stroke="#a9c5ef" stroke-width="2" />
  <rect x="20.6" y="16.52" width="2.4" height="30.96" rx="1.2" fill="#d6e7ff" />
  <rect x="27" y="23.5" width="17" height="2.24" rx="1.12" fill="#b8cfee" />
  <rect x="27" y="29.5" width="14" height="2.24" rx="1.12" fill="#b8cfee" />
  <rect x="27" y="35.5" width="11" height="2.24" rx="1.12" fill="#b8cfee" />
  <rect x="27" y="41.5" width="9" height="2.24" rx="1.12" fill="#b8cfee" />

  <path
    d="M41.8 13.8 43.2 17.2 46.6 18.6 43.2 20 41.8 23.4 40.4 20 37 18.6 40.4 17.2 41.8 13.8Z"
    fill="#f7d56c"
    transform="translate(41.8 18.6) scale(1.2) translate(-41.8 -18.6)"
  />
  <path
    d="M50.68 20.64 51.48 22.84 53.68 23.64 51.48 24.44 50.68 26.64 49.88 24.44 47.68 23.64 49.88 22.84 50.68 20.64Z"
    fill="#ffd97a"
    transform="translate(49.2 22.8) scale(1.2) translate(-49.2 -22.8)"
  />
  <path
    d="M45.4 10.88 46 12.48 47.6 13.08 46 13.68 45.4 15.28 44.8 13.68 43.2 13.08 44.8 12.48 45.4 10.88Z"
    fill="#ffe8a7"
    transform="translate(44.8 14) scale(1.2) translate(-44.8 -14)"
  />

  <circle cx="14.8" cy="17" r="1.3" fill="#ffffff" />
</svg>
