<svg xmlns="http://www.w3.org/2000/svg" viewBox="0 0 64 64" fill="none">
  <defs>
    <linearGradient id="bg" x1="6" y1="6" x2="58" y2="58" gradientUnits="userSpaceOnUse">
      <stop stop-color="#ffe9f4" />
      <stop offset="1" stop-color="#e9e3ff" />
    </linearGradient>
    <linearGradient id="book" x1="14" y1="14" x2="50" y2="50" gradientUnits="userSpaceOnUse">
      <stop stop-color="#fffefe" />
      <stop offset="1" stop-color="#f9f4ff" />
    </linearGradient>
  </defs>

  <rect x="4" y="4" width="56" height="56" rx="16" fill="url(#bg)" />

  <rect x="13" y="13" width="38" height="38" rx="10" fill="url(#book)" stroke="#d7bae9" stroke-width="2" />
  <rect x="30.5" y="16" width="3" height="32" rx="1.5" fill="#ead9f8" />
  <rect x="18" y="23" width="10" height="2.5" rx="1.25" fill="#eecff1" />
  <rect x="18" y="29" width="9" height="2.5" rx="1.25" fill="#eecff1" />
  <rect x="36" y="23" width="10" height="2.5" rx="1.25" fill="#d9e7ff" />
  <rect x="36" y="29" width="9" height="2.5" rx="1.25" fill="#d9e7ff" />

  <path
    d="M22.5 39.3c0-2 1.6-3.6 3.6-3.6 1.3 0 2.4.7 3 1.8.7-1.1 1.8-1.8 3.1-1.8 2 0 3.6 1.6 3.6 3.6 0 3.4-3.3 5.5-6.7 7.8-3.3-2.3-6.6-4.4-6.6-7.8Z"
    fill="#ff76b2"
  />

  <g transform="translate(14 8)">
    <ellipse cx="8" cy="7" rx="5.5" ry="4.2" fill="#ffc5dd" />
    <ellipse cx="16" cy="7" rx="5.5" ry="4.2" fill="#ffc5dd" />
    <circle cx="12" cy="8.5" r="2.4" fill="#ff9ec8" />
  </g>

  <circle cx="48" cy="15" r="1.6" fill="#fff" />
  <circle cx="50.5" cy="17.5" r="1" fill="#fff" />
</svg>
