<svg xmlns="http://www.w3.org/2000/svg" viewBox="0 0 64 64" fill="none">
  <defs>
    <linearGradient id="bg" x1="8" y1="6" x2="56" y2="58" gradientUnits="userSpaceOnUse">
      <stop stop-color="#dff2ff" />
      <stop offset="1" stop-color="#f4e9ff" />
    </linearGradient>
    <linearGradient id="card" x1="14" y1="16" x2="50" y2="50" gradientUnits="userSpaceOnUse">
      <stop stop-color="#ffffff" />
      <stop offset="1" stop-color="#f8f7ff" />
    </linearGradient>
  </defs>

  <rect x="4" y="4" width="56" height="56" rx="16" fill="url(#bg)" />

  <rect x="13" y="15" width="38" height="36" rx="10" fill="url(#card)" stroke="#b2c3ea" stroke-width="2" />
  <circle cx="15.5" cy="17.5" r="1.2" fill="#fff" />

  <rect x="18" y="24" width="15" height="2.5" rx="1.25" fill="#afbfdf" />
  <rect x="18" y="30" width="12" height="2.5" rx="1.25" fill="#afbfdf" />
  <rect x="18" y="36" width="10" height="2.5" rx="1.25" fill="#afbfdf" />

  <path d="M39 19.2 40 22l2.8 1-2.8 1-1 2.8-1-2.8-2.8-1 2.8-1 1-2.8Z" fill="#f0cb60" />
  <path d="M46 23.4 46.7 25.2l1.8.7-1.8.7-.7 1.8-.7-1.8-1.8-.7 1.8-.7.7-1.8Z" fill="#f7de96" />

  <path
    d="M36 39c0-2.4 1.9-4.3 4.3-4.3 1.7 0 3.1 1 3.8 2.4.4-.2.9-.3 1.4-.3 1.9 0 3.5 1.6 3.5 3.5s-1.6 3.5-3.5 3.5H36c-1.9 0-3.5-1.5-3.5-3.4 0-1.8 1.4-3.3 3.2-3.4.1-2.1 1.9-3.8 4.1-3.8"
    fill="#b1bbcd"
    stroke="#97aee0"
    stroke-width="1.9"
    stroke-linecap="round"
    stroke-linejoin="round"
  />
  <path d="M40.5 36.3a6.2 6.2 0 0 0-3.4 5.5" stroke="#97aee0" stroke-width="1.9" stroke-linecap="round" />
</svg>
