<svg xmlns="http://www.w3.org/2000/svg" viewBox="0 0 64 64" fill="none">
  <defs>
    <linearGradient id="bg" x1="8" y1="8" x2="56" y2="56" gradientUnits="userSpaceOnUse">
      <stop stop-color="#e8fbff" />
      <stop offset="1" stop-color="#ffe7f0" />
    </linearGradient>
    <linearGradient id="paper" x1="12" y1="14" x2="52" y2="50" gradientUnits="userSpaceOnUse">
      <stop stop-color="#fffefd" />
      <stop offset="1" stop-color="#f9f9ff" />
    </linearGradient>
  </defs>

  <rect x="4" y="4" width="56" height="56" rx="16" fill="url(#bg)" />

  <rect x="12" y="14" width="40" height="36" rx="9" fill="url(#paper)" stroke="#cfdaf8" stroke-width="2" />
  <rect x="17" y="22" width="18" height="2.5" rx="1.25" fill="#e6e7ff" />
  <rect x="17" y="28" width="15" height="2.5" rx="1.25" fill="#e6e7ff" />
  <rect x="17" y="34" width="12" height="2.5" rx="1.25" fill="#e6e7ff" />

  <path d="M39 17c0-1.1.9-2 2-2h5c1.1 0 2 .9 2 2v17l-4.5 4-4.5-4V17Z" fill="#ffd3e5" stroke="#f2aeca" stroke-width="1.5" />
  <circle cx="43.5" cy="23" r="5.2" fill="#fff7fa" />
  <path d="m40.8 20.8 1.8 1.4 1-2 1.1 2 1.8-1.4v2.5a3.9 3.9 0 1 1-5.7 0v-2.5Z" fill="#ff9fca" />
  <circle cx="42.2" cy="24.3" r="0.6" fill="#6c5d74" />
  <circle cx="44.8" cy="24.3" r="0.6" fill="#6c5d74" />
  <path d="M43.5 25.2c.5 0 1 .2 1.3.5-.3.4-.8.7-1.3.7s-1-.3-1.3-.7c.3-.3.8-.5 1.3-.5Z" fill="#6c5d74" />

  <path d="M15 45.4c0-1.5 1.2-2.8 2.8-2.8.9 0 1.7.4 2.2 1.1.5-.7 1.3-1.1 2.2-1.1 1.5 0 2.8 1.3 2.8 2.8 0 2.3-2.3 3.8-5 5.7-2.6-1.9-5-3.4-5-5.7Z" fill="#ff79b4" />
  <circle cx="50" cy="47" r="1.5" fill="#fff" />
  <circle cx="47.5" cy="44.5" r="0.9" fill="#fff" />
</svg>
